<svg xmlns="http://www.w3.org/2000/svg" xmlns:xlink="http://www.w3.org/1999/xlink" width="800" zoomAndPan="magnify" viewBox="0 0 600 449.999984" height="600" preserveAspectRatio="xMidYMid meet" version="1.0"><rect x="-60" width="720" fill="#ffffff" y="-44.999998" height="539.99998" fill-opacity="1"/><rect x="-60" width="720" fill="#ffffff" y="-44.999998" height="539.99998" fill-opacity="1"/><rect x="-60" width="720" fill="#ffffff" y="-44.999998" height="539.99998" fill-opacity="1"/><path fill="#1569ae" d="M 299.195312 134.878906 C 288.5625 134.878906 279.910156 143.503906 279.910156 154.105469 L 279.910156 257.078125 C 279.910156 267.679688 288.5625 276.304688 299.195312 276.304688 C 309.832031 276.304688 318.480469 267.679688 318.480469 257.078125 L 318.480469 154.105469 C 318.480469 143.503906 309.832031 134.878906 299.195312 134.878906 Z M 305.625 257.078125 C 305.625 260.648438 302.800781 263.449219 299.195312 263.449219 C 295.648438 263.449219 292.769531 260.59375 292.769531 257.078125 L 292.769531 154.105469 C 292.769531 150.535156 295.59375 147.734375 299.195312 147.734375 C 302.742188 147.734375 305.625 150.589844 305.625 154.105469 Z M 305.625 257.078125 " fill-opacity="1" fill-rule="nonzero"/><path fill="#1569ae" d="M 300 295.589844 C 285.820312 295.589844 274.285156 307.125 274.285156 321.304688 C 274.285156 335.488281 285.816406 347.019531 300 347.019531 C 314.183594 347.019531 325.714844 335.488281 325.714844 321.304688 C 325.714844 307.125 314.179688 295.589844 300 295.589844 Z M 300 334.164062 C 292.914062 334.164062 287.144531 328.394531 287.144531 321.304688 C 287.144531 314.21875 292.910156 308.449219 300 308.449219 C 307.085938 308.449219 312.855469 314.21875 312.855469 321.304688 C 312.855469 328.394531 307.085938 334.164062 300 334.164062 Z M 300 334.164062 " fill-opacity="1" fill-rule="nonzero"/><path fill="#1569ae" d="M 479.171875 376.011719 L 305.601562 67.441406 C 303.328125 63.398438 296.671875 63.398438 294.398438 67.441406 L 120.828125 376.011719 C 119.707031 378 119.726562 380.4375 120.878906 382.40625 C 122.035156 384.378906 124.144531 385.589844 126.429688 385.589844 L 473.570312 385.589844 C 475.855469 385.589844 477.964844 384.378906 479.121094 382.40625 C 480.273438 380.4375 480.292969 378 479.171875 376.011719 Z M 137.421875 372.734375 L 300 83.707031 L 462.578125 372.734375 Z M 137.421875 372.734375 " fill-opacity="1" fill-rule="nonzero"/></svg>